<?xml version="1.0" encoding="iso-8859-1"?>
<!-- Uploaded to: SVG Repo, www.svgrepo.com, Generator: SVG Repo Mixer Tools -->
<svg fill="#000000" height="800px" width="800px" version="1.1" id="Layer_1" xmlns="http://www.w3.org/2000/svg" xmlns:xlink="http://www.w3.org/1999/xlink" 
	 viewBox="0 0 512 512" xml:space="preserve">
<g>
	<g>
		<path d="M452.923,36.103H59.077C26.502,36.103,0,62.604,0,95.179V384c0,32.576,26.502,59.077,59.077,59.077h6.564v32.82h39.385
			v-32.82h288.821v32.82h39.385v-32.82h19.692C485.499,443.077,512,416.576,512,384V95.179
			C512,62.604,485.499,36.103,452.923,36.103z M472.615,384c0,10.86-8.833,19.692-19.692,19.692H59.077
			c-10.858,0-19.692-8.833-19.692-19.692V95.179c0-10.858,8.834-19.692,19.692-19.692h393.846c10.86,0,19.692,8.834,19.692,19.692
			V384z"/>
	</g>
</g>
<g>
	<g>
		<path d="M223.18,222.28v-35.203h-39.385v35.203c-4.072,4.626-6.564,10.676-6.564,17.31c0,14.478,11.779,26.256,26.256,26.256
			s26.256-11.779,26.256-26.256C229.744,232.956,227.252,226.908,223.18,222.28z"/>
	</g>
</g>
<g>
	<g>
		<path d="M406.974,160.82c-14.478,0-26.256,11.779-26.256,26.256c0,6.634,2.492,12.682,6.564,17.31v100.844h39.385V204.386
			c4.072-4.626,6.564-10.676,6.564-17.31C433.231,172.599,421.452,160.82,406.974,160.82z"/>
	</g>
</g>
<g>
	<g>
		<path d="M203.487,114.872c-68.769,0-124.718,55.948-124.718,124.718s55.948,124.718,124.718,124.718
			s124.718-55.948,124.718-124.718S272.257,114.872,203.487,114.872z M203.487,324.923c-47.053,0-85.333-38.281-85.333-85.333
			c0-47.053,38.281-85.333,85.333-85.333s85.333,38.281,85.333,85.333C288.82,286.643,250.54,324.923,203.487,324.923z"/>
	</g>
</g>
</svg>